<svg width="40" height="40" fill="url(#linear-gradient)" viewBox="0 0 24 24" xmlns="http://www.w3.org/2000/svg">
    <defs>
        <linearGradient id="linear-gradient" x1="0%" y1="0%" x2="100%" y2="0%">
          <stop offset="0%" style="stop-color:rgba(23, 204, 227, 1)" />
          <stop offset="100%" style="stop-color:rgba(238, 130, 238, 1)" />
        </linearGradient>
      </defs>
    <path d="M6 4.8a1.2 1.2 0 0 0-2.4 0v8.722a2.4 2.4 0 0 0 0 4.156V19.2a1.2 1.2 0 1 0 2.4 0v-1.522a2.4 2.4 0 0 0 0-4.156V4.8Zm7.2 0a1.2 1.2 0 1 0-2.4 0v1.522a2.4 2.4 0 0 0 0 4.156V19.2a1.2 1.2 0 1 0 2.4 0v-8.722a2.4 2.4 0 0 0 0-4.156V4.8Zm6-1.2a1.2 1.2 0 0 1 1.2 1.2v8.722a2.4 2.4 0 0 1 0 4.156V19.2a1.2 1.2 0 1 1-2.4 0v-1.522a2.4 2.4 0 0 1 0-4.156V4.8a1.2 1.2 0 0 1 1.2-1.2Z"></path>
   </svg>