<svg width="52" height="52" viewBox="0 0 52 52" fill="none" xmlns="http://www.w3.org/2000/svg">
<circle cx="26" cy="26" r="25.8" stroke="#F0F6FF" stroke-opacity="0.85" stroke-width="0.4"/>
<path d="M37.7399 34.379C37.2863 35.4272 36.7493 36.3918 36.1269 37.279C35.2789 38.4882 34.5845 39.3251 34.0493 39.7901C33.2197 40.553 32.3308 40.9436 31.379 40.9659C30.6957 40.9659 29.8717 40.7715 28.9124 40.3771C27.9501 39.9844 27.0656 39.7901 26.257 39.7901C25.4089 39.7901 24.4993 39.9844 23.5263 40.3771C22.5519 40.7715 21.7669 40.977 21.1668 40.9975C20.254 41.0361 19.3442 40.6343 18.4361 39.7901C17.8565 39.2844 17.1315 38.4177 16.263 37.1901C15.3312 35.879 14.5651 34.3587 13.965 32.6254C13.3222 30.7532 13 28.9403 13 27.1852C13 25.1747 13.4344 23.4407 14.3046 21.9876C14.9885 20.8204 15.8982 19.8997 17.0369 19.2238C18.1756 18.5479 19.4059 18.2035 20.7309 18.1814C21.4558 18.1814 22.4065 18.4057 23.588 18.8464C24.7661 19.2886 25.5225 19.5129 25.8542 19.5129C26.1021 19.5129 26.9425 19.2507 28.3671 18.7279C29.7143 18.2431 30.8513 18.0424 31.7827 18.1214C34.3067 18.3251 36.203 19.3201 37.4639 21.1126C35.2067 22.4804 34.09 24.396 34.1123 26.8535C34.1326 28.7677 34.8271 30.3607 36.1919 31.6254C36.8102 32.2125 37.5011 32.6661 38.2695 32.9884C38.103 33.4717 37.9269 33.9346 37.7399 34.379ZM31.9512 11.6002C31.9512 13.1005 31.4031 14.5014 30.3105 15.798C28.9921 17.3394 27.3973 18.2301 25.6679 18.0896C25.6459 17.9096 25.6331 17.7202 25.6331 17.5211C25.6331 16.0808 26.2601 14.5393 27.3736 13.279C27.9295 12.6409 28.6365 12.1103 29.4939 11.687C30.3494 11.2701 31.1587 11.0395 31.9197 11C31.942 11.2006 31.9512 11.4012 31.9512 11.6001V11.6002Z" fill="black"/>
</svg>
