<svg width="53" height="53" fill="none" stroke="url(#grad1)" stroke-linecap="round" stroke-linejoin="round" stroke-width="1" viewBox="0 0 24 24" xmlns="http://www.w3.org/2000/svg">
    <defs>
      <!-- Define the linear gradient -->
      <linearGradient id="grad1" x1="0%" y1="0%" x2="100%" y2="0%">
        <stop offset="0%" style="stop-color:rgba(23,204,227,1);stop-opacity:1" />
        <stop offset="100%" style="stop-color:rgba(238,130,238,1);stop-opacity:1" />
      </linearGradient>
    </defs>
    <path d="M21.143 7.533c-1.524-.832-3.048-1.247-4.572-1.247-1.523 0-3.047.415-4.571 1.247v11.324c1.524-.762 3.048-1.143 4.571-1.143 1.524 0 3.048.381 4.572 1.143V7.533Z" clip-rule="evenodd"></path>
    <path d="M9.778 15.758a8.672 8.672 0 0 0-2.35-.33 8.65 8.65 0 0 0-2.349.33"></path>
    <path d="M18.921 8.9a8.669 8.669 0 0 0-2.35-.328 8.67 8.67 0 0 0-2.35.329"></path>
    <path d="M18.921 11.187a8.668 8.668 0 0 0-2.35-.33c-.783 0-1.566.11-2.35.33"></path>
    <path d="M18.921 13.472a8.668 8.668 0 0 0-2.35-.33c-.783 0-1.566.11-2.35.33"></path>
    <path d="M18.921 15.758a8.672 8.672 0 0 0-2.35-.33c-.783 0-1.566.11-2.35.33"></path>
    <path d="M9.778 8.9a8.669 8.669 0 0 0-2.35-.328c-.783 0-1.566.11-2.349.329"></path>
    <path d="M9.778 11.187a8.668 8.668 0 0 0-2.35-.33 8.65 8.65 0 0 0-2.349.33"></path>
    <path d="M9.778 13.472a8.668 8.668 0 0 0-2.35-.33 8.65 8.65 0 0 0-2.349.33"></path>
    <path d="M12 7.533C10.476 6.7 8.952 6.286 7.429 6.286c-1.524 0-3.048.415-4.572 1.247v11.324c1.524-.762 3.048-1.143 4.572-1.143 1.523 0 3.047.381 4.571 1.143V7.533Z" clip-rule="evenodd"></path>
  </svg>
  