<svg xmlns="http://www.w3.org/2000/svg" viewBox="0 0 160.771 165.001">
    <defs>
        <style>
            .cls-1{fill:#1187f4}
        </style>
    </defs>
    <g id="Vector_Smart_Object" data-name="Vector Smart Object" transform="translate(-517 -4856.001)">
        <path id="Color_Overlay" d="M139.8 165v-13.039h-39.282V165h-3.854v-16.906h5.136v-11.672a15.356 15.356 0 0 1 4.61-10.938l22.376-21.8a8.776 8.776 0 0 1 12.207 12.616l-10.674 10.4-2.686-2.775 10.675-10.4a4.916 4.916 0 0 0-6.838-7.063l-22.375 21.8a11.468 11.468 0 0 0-3.441 8.164v11.672h28.877v-1.213a8.792 8.792 0 0 1 2.577-6.241l16.88-16.936a10.125 10.125 0 0 0 2.928-7.1V74.652c0-2.537-.643-4.428-1.862-5.465a5.013 5.013 0 0 0-4.1-.858c-2.033.334-3.4 2.874-3.4 6.323v27.762H143.7V74.652c0-5.5 2.6-9.478 6.629-10.139a8.615 8.615 0 0 1 7.219 1.728c1.468 1.252 3.22 3.728 3.22 8.412v41.954a14.027 14.027 0 0 1-4.057 9.833l-16.879 16.935a5 5 0 0 0-1.449 3.508v1.213h5.265V165zm-79.541 0v-13.039H20.977V165h-3.854v-16.906h5.264v-1.213a5.006 5.006 0 0 0-1.447-3.508L4.06 126.439A13.837 13.837 0 0 1 0 116.606V74.652c0-4.684 1.751-7.16 3.22-8.412a8.626 8.626 0 0 1 7.221-1.728c4.028.661 6.63 4.642 6.63 10.139v27.762h-3.855V74.652c0-3.448-1.365-5.988-3.4-6.323a5.026 5.026 0 0 0-4.1.858c-1.216 1.038-1.862 2.928-1.862 5.465v41.954a10.125 10.125 0 0 0 2.931 7.1l16.88 16.936a8.792 8.792 0 0 1 2.577 6.241v1.213h28.877v-11.674a11.468 11.468 0 0 0-3.441-8.164L29.3 106.459a4.915 4.915 0 0 0-6.837 7.063l10.674 10.4-2.682 2.778-10.674-10.4a8.776 8.776 0 0 1 12.208-12.613l22.375 21.8a15.356 15.356 0 0 1 4.61 10.938v11.672h5.136V165zm71.341-5.28v-4.413h3.854v4.413zm-7.47 0v-4.413h3.854v4.413zm-91.332 0v-4.413h3.854v4.413zm-7.47 0v-4.413h3.854v4.413zm44.336-52.08a7.074 7.074 0 0 1-4.218-4.144l-.112-.48a102.452 102.452 0 0 0-.606-4.7h-6.44v-3.868h5.79c0-.016-.006-.032-.009-.048a94.959 94.959 0 0 0-10.18-28.483l-.173-.3q-.6-1.068-1.217-2.11l-2.831-5.72a32.629 32.629 0 1 1 59.118 5.113c-.336.55-.582.954-.818 1.368a95.393 95.393 0 0 0-11.108 30.18h5.746v3.867H96.2c-.2 1.345-.4 2.694-.553 4.055a7.191 7.191 0 0 1-4.394 5.228 10.976 10.976 0 0 1-21.592.042zm10.8 5.108a7.038 7.038 0 0 0 6.75-4.671H73.7a7.038 7.038 0 0 0 6.755 4.671zm-11.322-10.41a3.215 3.215 0 0 0 2.911 1.872H88.73a3.2 3.2 0 0 0 3.124-2.492c.108-1.058.262-2.221.432-3.4H68.621c.196 1.343.371 2.682.512 4.019zM51.608 46.776a28.909 28.909 0 0 0 1.6 9.517l2.665 5.367c.311.512.673 1.134 1.036 1.775l.171.3a98.7 98.7 0 0 1 10.768 29.942c.049.257.084.515.131.771h24.963a99.454 99.454 0 0 1 11.692-32.121c.243-.428.509-.867.775-1.3a28.891 28.891 0 0 0-23.038-43.061 29.238 29.238 0 0 0-2-.068 28.83 28.83 0 0 0-28.763 28.878zm54.853 29.173l2.725-2.725 5.743 5.744-2.729 2.726zm-60.6 3.009l5.725-5.724 2.734 2.734-5.72 5.726zm73.324-29.971V45.12h8.095v3.867zm-85.7 0V45.12h8.095v3.867zm24.523-13.5a26.115 26.115 0 0 1 32.4-11.793l-1.37 3.615c-8.991-3.424-21.73-1.087-27.632 10zm48.452-17.329l5.725-5.724 2.734 2.734-5.724 5.724zm-60.6-3.009l2.726-2.725 5.743 5.744-2.725 2.724zm32.6-7.025V0h3.854v8.124z" class="cls-1" data-name="Color Overlay" transform="translate(517 4856.001)"></path>
    </g>
</svg>