<svg width="40" height="40" fill="url(#linear-gradient)" viewBox="0 0 24 24" xmlns="http://www.w3.org/2000/svg">
    <path fill-rule="evenodd" d="M11 19v3h2v-3h1a4 4 0 0 0 0-8h-1V7h2v2h2V5h-4V2h-2v3h-1a4 4 0 1 0 0 8h1v4H9v-2H7v4h4Zm2-2h1a2 2 0 1 0 0-4h-1v4Zm-2-6V7h-1a2 2 0 1 0 0 4h1Z" clip-rule="evenodd"></path>
    <defs>
        <linearGradient id="linear-gradient" x1="0%" y1="0%" x2="100%" y2="0%">
          <stop offset="0%" style="stop-color:rgba(23, 204, 227, 1)" />
          <stop offset="100%" style="stop-color:rgba(238, 130, 238, 1)" />
        </linearGradient>
      </defs>
   </svg>