<svg width="52" height="52" viewBox="0 0 52 52" fill="none" xmlns="http://www.w3.org/2000/svg">
<circle cx="26" cy="26" r="25.8" stroke="#F0F6FF" stroke-opacity="0.85" stroke-width="0.4"/>
<path d="M26 41C34.2842 41 41 34.2842 41 26C41 17.7157 34.2842 11 26 11C17.7157 11 11 17.7157 11 26C11 34.2842 17.7157 41 26 41Z" fill="#1977F3"/>
<path d="M31.8389 30.3365L32.5033 25.9996H28.3436V23.1856C28.3436 22.0002 28.9237 20.8421 30.7884 20.8421H32.6805V17.1506C32.6805 17.1506 30.9635 16.8574 29.3224 16.8574C25.8967 16.8574 23.6565 18.9331 23.6565 22.6941V25.9996H19.8469V30.3365H23.6565V40.8182C24.4201 40.9384 25.2027 40.9996 26.0001 40.9996C26.7974 40.9996 27.58 40.9363 28.3436 40.8182V30.3365H31.8389Z" fill="white"/>
</svg>
