<svg width="53" height="53" fill="currentColor" viewBox="0 0 24 24" xmlns="http://www.w3.org/2000/svg">
    <path fill-rule="evenodd" d="M12 3a6.5 6.5 0 0 0-2.505 12.5H9.5v.002A6.48 6.48 0 0 0 12 16a6.48 6.48 0 0 0 2.5-.498V15.5h.004A6.502 6.502 0 0 0 11.999 3Zm3.5 13.135a7.5 7.5 0 1 0-7 0V21.5a.5.5 0 0 0 .777.416L12 20.101l2.723 1.815a.5.5 0 0 0 .777-.416v-5.365Zm-1 .438A7.488 7.488 0 0 1 12 17a7.49 7.49 0 0 1-2.5-.427v3.993l2.223-1.482a.5.5 0 0 1 .554 0l2.223 1.482v-3.993ZM12 6a3.5 3.5 0 1 0 0 7 3.5 3.5 0 0 0 0-7ZM7.5 9.5a4.5 4.5 0 1 1 9 0 4.5 4.5 0 0 1-9 0Z" clip-rule="evenodd"></path>
   </svg>