<svg xmlns="http://www.w3.org/2000/svg" width="45.5" height="45.5" viewBox="0 0 45.5 45.5">
  <g id="low" transform="translate(1.5 1.5)">
    <path id="Path_4622" data-name="Path 4622" d="M10.891-2.859A6.148,6.148,0,0,1,6.375-1,6.148,6.148,0,0,1,1.859-2.859,6.148,6.148,0,0,1,0-7.375a6.148,6.148,0,0,1,1.859-4.516A6.148,6.148,0,0,1,6.375-13.75a6.148,6.148,0,0,1,4.516,1.859A6.148,6.148,0,0,1,12.75-7.375,6.148,6.148,0,0,1,10.891-2.859ZM31.609,17.859A6.375,6.375,0,0,1,42.5,22.375a6.386,6.386,0,0,1-10.891,4.516,6.413,6.413,0,0,1,0-9.031ZM41.836-10.164A2.1,2.1,0,0,1,42.5-8.637a2.1,2.1,0,0,1-.664,1.527l-35.2,35.2a2.088,2.088,0,0,1-3.055,0L.664,25.164a2.088,2.088,0,0,1,0-3.055l35.2-35.2a2.1,2.1,0,0,1,1.527-.664,2.1,2.1,0,0,1,1.527.664Z" transform="translate(0 13.75)" fill="none" stroke="#1e8df6" stroke-width="3"/>
  </g>
</svg>
