<svg width="40" height="40" fill="none" stroke="url(#linear-gradient)" stroke-linecap="round" stroke-linejoin="round" stroke-width="1.5" viewBox="0 0 24 24" xmlns="http://www.w3.org/2000/svg">
    <defs>
      <linearGradient id="linear-gradient" x1="0%" y1="0%" x2="100%" y2="0%">
        <stop offset="0%" stop-color="rgba(23, 204, 227, 1)" />
        <stop offset="100%" stop-color="rgba(238, 130, 238, 1)" />
      </linearGradient>
    </defs>
    <path d="M2 6.5h20v12H2v-12Z"></path>
    <path d="M2 10.5a4 4 0 0 0 4-4H2v4Z" clip-rule="evenodd"></path>
    <path d="M2 14.5a4 4 0 0 1 4 4H2v-4Z" clip-rule="evenodd"></path>
    <path d="M22 14.5v4h-4a4 4 0 0 1 4-4Z" clip-rule="evenodd"></path>
    <path d="M22 10.5a4 4 0 0 1-4-4h4v4Z" clip-rule="evenodd"></path>
    <path d="M12 15.5c1.38 0 2.5-1.343 2.5-3s-1.12-3-2.5-3-2.5 1.343-2.5 3 1.12 3 2.5 3Z"></path>
  </svg>
  