<svg id="secure" xmlns="http://www.w3.org/2000/svg" width="44" height="46.933" viewBox="0 0 44 46.933">
  <path id="Path_4623" data-name="Path 4623" d="M41.875-9.8a3.953,3.953,0,0,1,2.017,1.558,4.362,4.362,0,0,1,.733,2.475,42.392,42.392,0,0,1-3.483,17.325,38.519,38.519,0,0,1-8.067,11.55,27.057,27.057,0,0,1-8.8,5.958,3.9,3.9,0,0,1-3.3,0,27.232,27.232,0,0,1-9.625-6.783A36.741,36.741,0,0,1,3.742,10.458,42.383,42.383,0,0,1,.625-5.767a4.362,4.362,0,0,1,.733-2.475A3.953,3.953,0,0,1,3.375-9.8l17.6-7.333a3.9,3.9,0,0,1,3.3,0Zm-18.7,36.208a23.932,23.932,0,0,0,8.8-6.325A34.954,34.954,0,0,0,38.85,8.992,39.152,39.152,0,0,0,41.692-5.767a1.36,1.36,0,0,0-.917-1.375l-17.6-7.333a1.7,1.7,0,0,0-1.1,0L4.475-7.142a1.36,1.36,0,0,0-.917,1.375A39.152,39.152,0,0,0,6.4,8.992a34.954,34.954,0,0,0,6.875,11.092,23.932,23.932,0,0,0,8.8,6.325A1.7,1.7,0,0,0,23.175,26.408Zm13.292-27.5a.991.991,0,0,0,.275-.733,1.341,1.341,0,0,0-.275-.825l-.825-.733a.871.871,0,0,0-.733-.367,1.14,1.14,0,0,0-.825.367L19.142,11.467,12.817,5.05a.991.991,0,0,0-.733-.275,1.341,1.341,0,0,0-.825.275l-.733.825a.871.871,0,0,0-.367.733,1.341,1.341,0,0,0,.275.825l7.883,7.883a1.14,1.14,0,0,0,.825.367.871.871,0,0,0,.733-.367Z" transform="translate(-0.625 17.5)" fill="#1e8df6"/>
</svg>
