<svg id="srevice" xmlns="http://www.w3.org/2000/svg" width="46.759" height="53.439" viewBox="0 0 46.759 53.439">
  <path id="user-headset-light" d="M33.4,36.739h-.491a11.572,11.572,0,0,0-3.705.71,18.136,18.136,0,0,1-11.652,0,11.525,11.525,0,0,0-3.7-.708H13.36A13.36,13.36,0,0,0,0,50.1a3.34,3.34,0,0,0,3.34,3.34H43.419a3.34,3.34,0,0,0,3.34-3.34A13.36,13.36,0,0,0,33.4,36.739ZM3.34,50.1a10.03,10.03,0,0,1,10.02-10.02h.495a8.3,8.3,0,0,1,2.626.531,21.475,21.475,0,0,0,13.794,0,8.342,8.342,0,0,1,2.634-.533H33.4A10.03,10.03,0,0,1,43.419,50.1ZM5.01,23.38a1.67,1.67,0,0,0,1.67-1.67V20.04a16.7,16.7,0,1,1,33.4,0v1.67a8.359,8.359,0,0,1-8.35,8.35H28.39a3.34,3.34,0,0,0-3.34-3.34H21.71a3.34,3.34,0,1,0,0,6.68H31.73a11.7,11.7,0,0,0,11.69-11.69V20.04a20.04,20.04,0,0,0-40.079,0v1.67A1.67,1.67,0,0,0,5.01,23.38ZM23.38,10.02a9.975,9.975,0,0,1,7.435,16.675c0,.009.014.016.019.025h.9a5,5,0,0,0,4.232-2.357,13.343,13.343,0,1,0-20.9,6.059c-.006-.122-.037-.238-.037-.362a6.6,6.6,0,0,1,.932-3.34,9.976,9.976,0,0,1,7.418-16.7Z" fill="#1e8df6"/>
</svg>
