<svg width="18" height="18" viewBox="0 0 24 24" xmlns="http://www.w3.org/2000/svg">
    <defs>
        <linearGradient id="gradient" x1="0%" y1="0%" x2="100%" y2="0%">
            <stop offset="0%" style="stop-color:rgba(23, 204, 227, 1)" />
            <stop offset="100%" style="stop-color:rgba(238, 130, 238, 1)" />
        </linearGradient>
    </defs>
    <path d="M18.469 22.5a.75.75 0 0 1-.44-.14L12 17.99l-6.029 4.37a.75.75 0 0 1-1.15-.847l2.35-6.965-6.093-4.178A.75.75 0 0 1 1.5 9h7.518l2.268-6.981a.75.75 0 0 1 1.427 0l2.27 6.984H22.5a.75.75 0 0 1 .424 1.369l-6.096 4.176 2.35 6.963a.75.75 0 0 1-.71.99Z" fill="url(#gradient)"></path>
</svg>
