<svg width="53" height="53" fill="currentColor" viewBox="0 0 24 24" xmlns="http://www.w3.org/2000/svg">
    <path fill-rule="evenodd" d="M18.133 2.033c.424 0 .767.344.767.767v18.4a.767.767 0 0 1-1.533 0V2.8c0-.423.343-.767.766-.767ZM15.067 5.1c.423 0 .766.343.766.767V21.2a.767.767 0 0 1-1.533 0V5.867c0-.424.343-.767.767-.767Zm6.133 0c.423 0 .767.343.767.767V21.2a.767.767 0 0 1-1.534 0V5.867c0-.424.344-.767.767-.767ZM8.933 6.633c.424 0 .767.344.767.767v13.8a.767.767 0 0 1-1.533 0V7.4c0-.423.343-.767.766-.767ZM2.8 8.167c.423 0 .767.343.767.766V21.2a.767.767 0 0 1-1.534 0V8.933c0-.423.344-.766.767-.766Zm9.2 0c.423 0 .767.343.767.766V21.2a.767.767 0 0 1-1.534 0V8.933c0-.423.344-.766.767-.766Zm-6.133 3.066c.423 0 .766.344.766.767v9.2a.767.767 0 0 1-1.533 0V12c0-.423.343-.767.767-.767Z" clip-rule="evenodd"></path>
   </svg>