<svg width="40" height="40" fill="url(#linear-gradient)" viewBox="0 0 24 24" xmlns="http://www.w3.org/2000/svg">
    <path d="M2 20h20v2H2v-2Zm2-8h2v7H4v-7Zm5 0h2v7H9v-7Zm4 0h2v7h-2v-7Zm5 0h2v7h-2v-7ZM2 7l10-5 10 5v4H2V7Zm2 1.236V9h16v-.764l-8-4-8 4ZM12 8a1 1 0 1 1 0-2 1 1 0 0 1 0 2Z"></path>
    <defs>
        <linearGradient id="linear-gradient" x1="0%" y1="0%" x2="100%" y2="0%">
          <stop offset="0%" style="stop-color:rgba(23, 204, 227, 1)" />
          <stop offset="100%" style="stop-color:rgba(238, 130, 238, 1)" />
        </linearGradient>
      </defs>
   </svg>